<svg width="87" height="87" viewBox="0 0 87 87" fill="none" xmlns="http://www.w3.org/2000/svg">
<path fill-rule="evenodd" clip-rule="evenodd" d="M74.1514 41.556C74.0228 42.6661 73.017 43.4591 71.9053 43.3306C70.7936 43.1985 69.9994 42.1941 70.1281 41.084C71.1717 32.369 68.7062 23.6011 63.2762 16.7021C57.8461 9.79963 49.8979 5.33622 41.1701 4.28643C32.4465 3.24051 23.6622 5.69107 16.7466 11.1096C9.83422 16.5244 5.35666 24.461 4.2986 33.1725C3.24363 41.8837 5.69015 50.6592 11.1089 57.565C16.5277 64.475 24.4727 68.9531 33.1956 70.0145C34.3073 70.1466 35.1015 71.1511 34.9691 72.2612C34.8367 73.3713 33.8309 74.1643 32.7192 74.0359C22.9294 72.8464 14.009 67.8243 7.92486 60.0764C1.84056 52.3244 -0.912243 42.4766 0.267503 32.697C1.45112 22.9212 6.47281 14.0136 14.2324 7.93042C21.9918 1.84728 31.8497 -0.909127 41.6433 0.265161C51.4331 1.43945 60.3612 6.44641 66.457 14.1907C72.5526 21.9315 75.3198 31.7754 74.1514 41.556ZM60.2359 71.6314C58.9237 71.6276 57.744 72.4168 57.241 73.6289C56.7381 74.8372 57.0179 76.2305 57.9443 77.1556C58.8708 78.0807 60.266 78.3564 61.4761 77.8542C62.6861 77.3558 63.4764 76.1738 63.4764 74.8635C63.4764 73.0775 62.0245 71.6314 60.2359 71.6314ZM58.209 51.264V67.6024C58.209 68.72 59.1165 69.6264 60.2359 69.6264C61.3552 69.6264 62.2665 68.7201 62.2665 67.6024V51.264C62.2665 50.1464 61.3552 49.2401 60.2359 49.2401C59.1166 49.2401 58.209 50.1463 58.209 51.264ZM33.982 80.0635C33.237 81.5475 33.3127 83.3109 34.1862 84.7268C35.0635 86.139 36.6063 87 38.2701 87H82.2025C83.8664 87 85.4129 86.1391 86.2865 84.7268C87.16 83.3109 87.2356 81.5474 86.4907 80.0635L64.5249 36.1901C63.7157 34.5664 62.0557 33.5393 60.2368 33.5393C58.418 33.5393 56.7579 34.5664 55.9487 36.1901L33.982 80.0635ZM59.5594 37.9919L37.5937 81.8653C37.4727 82.0995 37.4841 82.3789 37.624 82.6017C37.7639 82.8244 38.0097 82.9566 38.2706 82.9491H82.203C82.4677 82.9566 82.7135 82.8244 82.8534 82.6017C82.9933 82.3789 83.0008 82.0995 82.8836 81.8653L60.914 37.9919C60.7855 37.7352 60.5246 37.5728 60.2372 37.5728C59.9498 37.5728 59.6851 37.7352 59.5565 37.9919H59.5594ZM32.3867 49.5347L38.9587 38.165C39.1365 37.8591 39.231 37.5079 39.231 37.153V15.1771C39.1592 14.1123 38.2705 13.2891 37.2041 13.2891C36.134 13.2891 35.2492 14.1123 35.1735 15.1771V36.6213L28.8888 47.5077C28.3291 48.4744 28.6619 49.7129 29.6262 50.2718C30.5942 50.8306 31.8345 50.4983 32.3942 49.5355L32.3867 49.5347Z" fill="#8D22A1"/>
</svg>
