<svg width="130" height="34" viewBox="0 0 130 34" fill="none" xmlns="http://www.w3.org/2000/svg">
<rect x="94.0664" width="31.7333" height="34" fill="#8D22A1"/>
<path d="M113.086 25.5033C113.45 26.3871 113.748 27.037 113.982 27.4529C114.242 27.8689 114.515 28.1418 114.8 28.2718C115.086 28.3758 115.437 28.4538 115.852 28.5057V29.4026H104.983V28.5057C106.022 28.4538 106.593 28.1418 106.697 27.5699C106.827 26.998 106.736 26.3091 106.424 25.5033L104.477 20.4342C104.321 20.5642 104.113 20.6551 103.853 20.7071C103.619 20.7331 103.36 20.7461 103.074 20.7461H98.6718C98.1264 20.7461 97.7108 20.8111 97.4251 20.9411C97.1395 21.0711 96.8927 21.396 96.6849 21.9159L95.2825 25.5033C94.9448 26.3611 94.9708 27.063 95.3604 27.6089C95.75 28.1548 96.5161 28.4538 97.6589 28.5057V29.4026H90.5686V28.5057C91.14 28.4538 91.6204 28.1678 92.01 27.6479C92.4256 27.102 92.8022 26.3871 93.1398 25.5033L100.62 6.55264C100.905 5.87676 101.152 5.21388 101.36 4.564C101.594 3.91411 101.801 3.25123 101.983 2.57535H104.243C104.425 3.25123 104.632 3.91411 104.866 4.564C105.1 5.21388 105.347 5.87676 105.606 6.55264L113.086 25.5033ZM102.879 19.0694C103.243 19.0694 103.477 19.0174 103.58 18.9135C103.71 18.7835 103.697 18.5235 103.542 18.1336L100.853 11.4658H100.776L97.7368 19.2254C97.8667 19.1474 98.0225 19.1084 98.2043 19.1084C98.3861 19.0824 98.5939 19.0694 98.8276 19.0694H102.879Z" fill="#22093A"/>
<path d="M118.097 29.4026V28.5057C118.85 28.4538 119.395 28.2588 119.733 27.9209C120.071 27.5829 120.24 26.7771 120.24 25.5033V7.3715C120.24 6.09772 120.045 5.29187 119.655 4.95393C119.292 4.58999 118.577 4.39503 117.512 4.36903V3.47219H128.615V4.36903C127.862 4.39503 127.317 4.58999 126.979 4.95393C126.642 5.29187 126.473 6.09772 126.473 7.3715V25.5033C126.473 26.7771 126.668 27.5829 127.057 27.9209C127.447 28.2588 128.161 28.4538 129.2 28.5057V29.4026H118.097Z" fill="#22093A"/>
<path d="M4.53114 12.6237C4.57596 13.5312 4.59837 14.769 4.59837 16.3373C4.59837 18.7161 4.62078 20.2402 4.6656 20.9098C4.71042 21.5706 4.88521 22.0684 5.18997 22.4032C5.5037 22.738 5.85777 22.9054 6.25217 22.9054C6.71828 22.9054 7.18888 22.7336 7.66395 22.39C8.14799 22.0464 8.50206 21.597 8.72615 21.042C8.95921 20.4869 9.07573 19.5795 9.07573 18.3196L9.10262 15.399C9.10262 14.6236 9.05781 14.1126 8.96817 13.8659C8.8875 13.6193 8.60066 13.4871 8.10766 13.4695C7.56983 13.443 7.30092 13.3065 7.30092 13.0598C7.30092 12.91 7.36367 12.8175 7.48916 12.7823C7.62362 12.7382 7.96872 12.7162 8.52447 12.7162C9.77042 12.7162 10.9312 12.6854 12.0069 12.6237C12.0427 12.9673 12.0606 14.8483 12.0606 18.2667C12.0606 21.0156 12.0875 22.5177 12.1413 22.7732C12.1951 23.0199 12.4864 23.1653 13.0153 23.2093C13.329 23.2446 13.4859 23.3723 13.4859 23.5926C13.4859 23.8481 13.3066 23.9758 12.948 23.9758C12.8763 23.9758 12.7643 23.9714 12.6119 23.9626C12.3609 23.945 12.0651 23.9362 11.7245 23.9362C10.5323 23.9362 9.8735 23.9406 9.74801 23.9494C9.60459 23.9582 9.48358 23.9626 9.38498 23.9626C9.21467 23.9626 9.10711 23.9362 9.06229 23.8833C9.02643 23.8217 9.00851 23.6499 9.00851 23.3679C9.00851 22.9098 9.03988 22.4472 9.10262 21.9803C8.48413 22.7204 7.82978 23.2754 7.13958 23.6455C6.45834 24.0155 5.74124 24.2005 4.98829 24.2005C2.70255 24.2005 1.55968 22.9406 1.55968 20.4209V16.3373C1.55968 14.9276 1.5059 14.1038 1.39834 13.8659C1.29973 13.6193 1.03082 13.4651 0.591603 13.4034C0.197201 13.3505 0 13.236 0 13.0598C0 12.8219 0.174792 12.703 0.524376 12.703C2.92664 12.703 4.26223 12.6765 4.53114 12.6237Z" fill="white"/>
<path d="M19.268 14.9364C19.8775 14.0906 20.5363 13.4563 21.2445 13.0334C21.9616 12.6105 22.728 12.399 23.5437 12.399C24.2249 12.399 24.8479 12.5708 25.4126 12.9144C25.9773 13.258 26.3583 13.6677 26.5555 14.1435C26.7616 14.6192 26.8647 15.2932 26.8647 16.1655L26.7437 21.4385C26.7437 22.1609 26.8109 22.6411 26.9454 22.879C27.0798 23.1168 27.3622 23.271 27.7925 23.3415C28.151 23.4032 28.3303 23.5441 28.3303 23.7644C28.3303 23.9935 28.1555 24.108 27.8059 24.108C27.5101 24.108 26.8602 24.0728 25.8563 24.0023C25.5067 23.9847 25.2244 23.9758 25.0092 23.9758C24.8031 23.9758 24.2115 24.0155 23.2344 24.0948H22.5756C22.2081 24.0948 22.0243 23.9758 22.0243 23.738C22.0243 23.5441 22.1901 23.4164 22.5218 23.3547C22.8266 23.293 23.0686 23.1917 23.2479 23.0508C23.4271 22.9098 23.5437 22.2182 23.5974 20.9759C23.6602 19.7337 23.6916 18.5002 23.6916 17.2756C23.6916 15.9188 23.5795 14.9893 23.3554 14.4871C23.1403 13.9849 22.7235 13.7338 22.105 13.7338C21.3431 13.7338 20.6349 14.2844 19.9806 15.3857C19.3352 16.4782 19.0125 18.161 19.0125 20.4341C19.0125 21.3151 19.0573 21.9539 19.147 22.3503C19.2366 22.7468 19.3442 22.9979 19.4697 23.1036C19.6041 23.2005 19.882 23.2842 20.3033 23.3547C20.5543 23.3988 20.6798 23.5265 20.6798 23.738C20.6798 23.9847 20.496 24.108 20.1285 24.108C19.9492 24.108 19.752 24.0992 19.5369 24.0816C18.6764 24.0023 18.2103 23.9626 18.1386 23.9626C16.8478 23.9626 15.7901 24.0067 14.9654 24.0948C14.831 24.1124 14.7234 24.1212 14.6427 24.1212C14.3111 24.1212 14.1452 23.9935 14.1452 23.738C14.1452 23.5177 14.2931 23.39 14.5889 23.3547C15.0461 23.3018 15.3553 23.1785 15.5167 22.9847C15.678 22.7908 15.7946 22.1873 15.8663 21.1741C15.9469 20.1521 15.9873 18.9363 15.9873 17.5267C15.9873 15.7293 15.92 14.6192 15.7856 14.1963C15.6511 13.7646 15.3284 13.4519 14.8175 13.258C14.45 13.1171 14.2662 12.9805 14.2662 12.8484C14.2662 12.6369 14.5307 12.5312 15.0595 12.5312C16.5475 12.5312 17.7531 12.4739 18.6764 12.3594C19.017 13.1259 19.2142 13.9849 19.268 14.9364Z" fill="white"/>
<path d="M33.4132 14.0774C33.8973 13.54 34.4127 13.1391 34.9595 12.8748C35.5062 12.6017 36.0844 12.4651 36.6939 12.4651C37.9488 12.4651 39.141 13.0113 40.2704 14.1038C41.4088 15.1875 41.978 16.5795 41.978 18.2799C41.978 19.8746 41.4133 21.2578 40.2839 22.4296C39.1634 23.5926 37.8368 24.1741 36.304 24.1741C35.7572 24.1741 35.2284 24.0992 34.7174 23.9494C34.2065 23.7908 33.709 23.5573 33.225 23.249C33.225 26.7731 33.3236 28.8259 33.5208 29.4074C33.718 29.9977 34.2468 30.3105 35.1074 30.3457C35.4211 30.3545 35.578 30.4735 35.578 30.7026C35.578 30.9404 35.3673 31.0594 34.946 31.0594C34.704 31.0594 34.332 31.0462 33.83 31.0197C32.7813 30.9492 31.867 30.914 31.0871 30.914C30.5583 30.914 29.9174 30.9448 29.1644 31.0065C28.7969 31.0329 28.5639 31.0462 28.4653 31.0462C27.9992 31.0462 27.7661 30.9316 27.7661 30.7026C27.7661 30.4911 28.0171 30.3634 28.519 30.3193C29.3347 30.24 29.8233 29.7466 29.9846 28.8392C30.146 27.9405 30.2266 24.8569 30.2266 19.5883L30.146 15.28C30.146 14.443 30.0429 13.9012 29.8367 13.6545C29.6305 13.4078 29.3034 13.2624 28.8552 13.2184C28.5146 13.1831 28.3443 13.0598 28.3443 12.8484C28.3443 12.5928 28.537 12.4651 28.9224 12.4651C30.509 12.4651 32.0059 12.4299 33.4132 12.3594L33.4401 13.6809C33.4401 13.7338 33.4311 13.8659 33.4132 14.0774ZM38.1864 18.7425C38.1864 17.139 37.9444 15.8967 37.4603 15.0157C36.9853 14.1259 36.3623 13.6809 35.5914 13.6809C34.8026 13.6809 34.2065 14.1523 33.8031 15.095C33.4087 16.0377 33.2115 17.4562 33.2115 19.3504C33.2115 20.8482 33.4043 21.879 33.7897 22.4428C34.1751 22.9979 34.7891 23.2754 35.6317 23.2754C36.4833 23.2754 37.1197 22.8966 37.541 22.1389C37.9713 21.3812 38.1864 20.2491 38.1864 18.7425Z" fill="white"/>
<path d="M47.8005 15.0289C48.2487 14.1391 48.7641 13.4739 49.3467 13.0334C49.9294 12.5928 50.5792 12.3726 51.2963 12.3726C51.9776 12.3726 52.5199 12.5664 52.9232 12.9541C53.3356 13.3417 53.5417 13.8263 53.5417 14.4078C53.5417 14.8659 53.3938 15.258 53.098 15.584C52.8112 15.9011 52.4571 16.0597 52.0358 16.0597C51.7221 16.0597 51.4621 15.9804 51.256 15.8218C51.0498 15.6633 50.8302 15.3813 50.5971 14.9761C50.2745 14.3946 49.9921 14.1038 49.7501 14.1038C49.4184 14.1038 49.042 14.4342 48.6207 15.095C48.1994 15.7558 47.9887 17.0377 47.9887 18.9407C47.9887 21.3459 48.0694 22.6851 48.2307 22.9582C48.401 23.2226 48.7686 23.3547 49.3333 23.3547C49.8263 23.3547 50.0728 23.4869 50.0728 23.7512C50.0728 23.9979 49.8308 24.1212 49.3467 24.1212C49.0778 24.1212 48.6879 24.0948 48.177 24.0419C47.7108 23.9979 47.2716 23.9758 46.8593 23.9758C45.9719 23.9758 45.0934 24.0067 44.224 24.0684C43.8565 24.0948 43.6413 24.108 43.5786 24.108C43.2021 24.108 43.0139 23.9714 43.0139 23.6983C43.0139 23.4604 43.2335 23.3327 43.6727 23.3151C44.103 23.2974 44.4032 23.2005 44.5736 23.0243C44.7439 22.8393 44.829 22.4428 44.829 21.8349L44.8828 18.531C44.8828 17.8614 44.8559 17.0289 44.8021 16.0333C44.7483 15.0377 44.699 14.4474 44.6542 14.2624C44.6094 14.0686 44.4929 13.8968 44.3046 13.747C44.1254 13.5972 43.8789 13.5091 43.5651 13.4827C43.2424 13.4475 43.0363 13.4078 42.9466 13.3638C42.866 13.3109 42.8256 13.2096 42.8256 13.0598C42.8256 12.8219 43.0497 12.6986 43.4979 12.6898C44.3226 12.681 45.7254 12.5752 47.7064 12.3726L47.8005 15.0289Z" fill="white"/>
<path d="M57.5087 17.9496C57.4997 18.2051 57.4952 18.3901 57.4952 18.5046C57.4952 19.7557 57.8045 20.8173 58.423 21.6896C59.0504 22.553 59.893 22.9847 60.9507 22.9847C62.0354 22.9847 63.102 22.5221 64.1508 21.597C64.3659 21.412 64.5183 21.3195 64.6079 21.3195C64.841 21.3195 64.9575 21.4429 64.9575 21.6896C64.9575 21.8834 64.6886 22.2314 64.1508 22.7336C63.613 23.2358 62.9541 23.6146 62.1743 23.8701C61.3944 24.1256 60.5877 24.2534 59.7541 24.2534C57.9255 24.2534 56.4913 23.7071 55.4515 22.6146C54.4207 21.5133 53.9053 20.2182 53.9053 18.7293C53.9053 16.9408 54.4969 15.443 55.6801 14.236C56.8723 13.0202 58.3558 12.4122 60.1306 12.4122C61.7978 12.4122 63.0662 12.9629 63.9357 14.0642C64.8141 15.1655 65.2533 16.2139 65.2533 17.2095C65.2533 17.5267 65.1682 17.7161 64.9978 17.7778C64.8275 17.8394 64.2763 17.8703 63.3441 17.8703L57.5087 17.9496ZM57.5894 16.9848C58.916 17.0024 59.6824 17.0112 59.8885 17.0112C60.9014 17.0112 61.5199 16.9408 61.744 16.7998C61.9771 16.6588 62.0936 16.3725 62.0936 15.9408C62.0936 15.2183 61.883 14.5796 61.4617 14.0245C61.0404 13.4695 60.5384 13.192 59.9558 13.192C58.5754 13.192 57.7866 14.4562 57.5894 16.9848Z" fill="white"/>
<path d="M75.7683 20.2887C75.7683 20.923 75.5979 21.5398 75.2573 22.1389C74.9257 22.738 74.4192 23.2358 73.738 23.6322C73.0657 24.0199 72.2769 24.2137 71.3716 24.2137C70.2421 24.2137 69.2875 23.9847 68.5077 23.5265C68.1671 23.3327 67.9474 23.2358 67.8488 23.2358C67.7323 23.2358 67.6427 23.3107 67.5799 23.4604C67.4365 23.8128 67.2662 23.9891 67.069 23.9891C66.9525 23.9891 66.8673 23.945 66.8135 23.8569C66.7687 23.7688 66.7284 23.3767 66.6925 22.6807C66.6656 21.9759 66.6522 21.1433 66.6522 20.183C66.6522 19.8129 66.7598 19.6279 66.9749 19.6279C67.19 19.6279 67.4186 19.901 67.6606 20.4473C68.5211 22.4296 69.6954 23.4208 71.1833 23.4208C71.7032 23.4208 72.1424 23.2886 72.501 23.0243C72.8685 22.76 73.0523 22.3768 73.0523 21.8746C73.0523 21.4517 72.882 21.0904 72.5413 20.7909C72.2097 20.4825 71.5688 20.0993 70.6186 19.6411C69.1844 18.9451 68.2029 18.3372 67.674 17.8174C67.1362 17.2976 66.8673 16.606 66.8673 15.7426C66.8673 14.747 67.2572 13.9408 68.0371 13.3241C68.8169 12.6986 69.776 12.3858 70.9144 12.3858C71.8198 12.3858 72.7385 12.6501 73.6708 13.1787C73.7962 13.2492 73.8993 13.2845 73.98 13.2845C74.0965 13.2845 74.1862 13.1875 74.2489 12.9937C74.3386 12.747 74.4685 12.6237 74.6388 12.6237C74.7554 12.6237 74.836 12.6633 74.8809 12.7426C74.9257 12.8219 74.9884 13.236 75.0691 13.9849C75.1498 14.725 75.1901 15.3417 75.1901 15.8351C75.1901 16.1787 75.087 16.3505 74.8809 16.3505C74.6657 16.3505 74.4461 16.1038 74.222 15.6104C73.4601 13.9717 72.3621 13.1523 70.9279 13.1523C70.408 13.1523 69.9867 13.2801 69.664 13.5356C69.3413 13.7911 69.1799 14.0642 69.1799 14.3549C69.1799 14.725 69.3861 15.0642 69.7984 15.3725C70.2108 15.6897 71.013 16.117 72.2052 16.6544C73.2271 17.1126 73.9352 17.4694 74.3296 17.7249C74.733 17.9716 75.0736 18.3328 75.3514 18.8086C75.6293 19.2755 75.7683 19.7689 75.7683 20.2887Z" fill="white"/>
<path d="M86.7 20.2887C86.7 20.923 86.5297 21.5398 86.1891 22.1389C85.8574 22.738 85.351 23.2358 84.6697 23.6322C83.9975 24.0199 83.2087 24.2137 82.3033 24.2137C81.1739 24.2137 80.2193 23.9847 79.4394 23.5265C79.0988 23.3327 78.8792 23.2358 78.7806 23.2358C78.6641 23.2358 78.5744 23.3107 78.5117 23.4604C78.3683 23.8128 78.198 23.9891 78.0008 23.9891C77.8842 23.9891 77.7991 23.945 77.7453 23.8569C77.7005 23.7688 77.6601 23.3767 77.6243 22.6807C77.5974 21.9759 77.5839 21.1433 77.5839 20.183C77.5839 19.8129 77.6915 19.6279 77.9066 19.6279C78.1218 19.6279 78.3503 19.901 78.5924 20.4473C79.4529 22.4296 80.6271 23.4208 82.1151 23.4208C82.635 23.4208 83.0742 23.2886 83.4327 23.0243C83.8003 22.76 83.984 22.3768 83.984 21.8746C83.984 21.4517 83.8137 21.0904 83.4731 20.7909C83.1414 20.4825 82.5005 20.0993 81.5504 19.6411C80.1162 18.9451 79.1347 18.3372 78.6058 17.8174C78.068 17.2976 77.7991 16.606 77.7991 15.7426C77.7991 14.747 78.189 13.9408 78.9688 13.3241C79.7487 12.6986 80.7078 12.3858 81.8462 12.3858C82.7515 12.3858 83.6703 12.6501 84.6025 13.1787C84.728 13.2492 84.8311 13.2845 84.9118 13.2845C85.0283 13.2845 85.1179 13.1875 85.1807 12.9937C85.2703 12.747 85.4003 12.6237 85.5706 12.6237C85.6871 12.6237 85.7678 12.6633 85.8126 12.7426C85.8574 12.8219 85.9202 13.236 86.0008 13.9849C86.0815 14.725 86.1219 15.3417 86.1219 15.8351C86.1219 16.1787 86.0188 16.3505 85.8126 16.3505C85.5975 16.3505 85.3779 16.1038 85.1538 15.6104C84.3919 13.9717 83.2938 13.1523 81.8596 13.1523C81.3397 13.1523 80.9184 13.2801 80.5957 13.5356C80.273 13.7911 80.1117 14.0642 80.1117 14.3549C80.1117 14.725 80.3179 15.0642 80.7302 15.3725C81.1425 15.6897 81.9448 16.117 83.1369 16.6544C84.1588 17.1126 84.8669 17.4694 85.2613 17.7249C85.6647 17.9716 86.0053 18.3328 86.2832 18.8086C86.5611 19.2755 86.7 19.7689 86.7 20.2887Z" fill="white"/>
</svg>
