<svg width="90" height="80" viewBox="0 0 90 80" fill="none" xmlns="http://www.w3.org/2000/svg">
<path d="M83.1844 0H6.81891C3.05664 0 0 3.08768 0 6.89678V56.5475C0 60.3527 3.05281 63.4443 6.81891 63.4443H43.6365V77.2382H34.0907C33.3275 77.2382 32.7254 77.8433 32.7254 78.6191C32.7254 79.391 33.3237 80 34.0907 80H55.9093C56.6725 80 57.2746 79.3949 57.2746 78.6191C57.2746 77.8472 56.6763 77.2382 55.9093 77.2382H46.3635V63.4443H83.1811C86.9434 63.4443 90 60.3566 90 56.5475V6.89678C90 3.09155 86.9472 0 83.1811 0H83.1844ZM87.2728 56.5472C87.2728 58.8358 85.4472 60.6861 83.1806 60.6861L6.81901 60.6822C4.55625 60.6822 2.72686 58.8358 2.72686 56.5433L2.73069 6.89658C2.73069 4.60798 4.55625 2.75769 6.82284 2.75769H83.1844C85.4472 2.75769 87.2766 4.6041 87.2766 6.89658V56.5473L87.2728 56.5472ZM29.101 25.155L22.3664 31.9665C22.0941 32.2419 21.7375 32.3816 21.4115 32.3816C21.0855 32.3816 20.702 32.2419 20.4565 31.9665C19.9119 31.4157 19.9119 30.5584 20.4565 30.0076L27.1911 23.1961L20.4565 16.3846C19.9119 15.8338 19.9119 14.9765 20.4565 14.4257C21.0011 13.8749 21.8487 13.8749 22.3933 14.4257L29.1279 21.2372L35.8624 14.4257C36.407 13.8749 37.2546 13.8749 37.7993 14.4257C38.3438 14.9765 38.3438 15.8338 37.7993 16.3846L31.0647 23.1961L37.7993 30.0076C38.3438 30.5584 38.3438 31.4157 37.7993 31.9665C37.527 32.2419 37.1703 32.3816 36.8443 32.3816C36.5183 32.3816 36.1348 32.2419 35.8893 31.9665L29.1548 25.155H29.101ZM69.5738 16.3847L62.8392 23.1962L69.5738 30.0077C70.1184 30.5585 70.1184 31.4158 69.5738 31.9666C69.3015 32.242 68.9449 32.3817 68.6189 32.3817C68.2929 32.3817 67.9093 32.242 67.6639 31.9666L60.9293 25.1551L54.1948 31.9666C53.9225 32.242 53.5658 32.3817 53.2398 32.3817C52.9138 32.3817 52.5303 32.242 52.2848 31.9666C51.7402 31.4158 51.7402 30.5585 52.2848 30.0077L59.0194 23.1962L52.2848 16.3847C51.7402 15.8339 51.7402 14.9766 52.2848 14.4258C52.8294 13.875 53.677 13.875 54.2216 14.4258L60.9562 21.2373L67.6908 14.4258C68.2354 13.875 69.083 13.875 69.6276 14.4258C70.1722 14.9766 70.1722 15.8339 69.6276 16.3847H69.5738ZM62.1298 46.8931C62.7588 47.3082 62.9198 48.1615 62.5133 48.7977C62.241 49.1856 61.8307 49.4028 61.3666 49.4028C61.0943 49.4028 60.8488 49.3214 60.6034 49.1817C50.103 42.091 39.905 42.091 29.3772 49.1817C28.7482 49.5968 27.9045 49.43 27.4941 48.7938C27.0837 48.1577 27.2486 47.3043 27.8776 46.8892C39.2488 39.2205 50.7585 39.2205 62.1022 46.8892L62.1298 46.8931Z" fill="#8D22A1"/>
</svg>
