<svg width="90" height="79" viewBox="0 0 90 79" fill="none" xmlns="http://www.w3.org/2000/svg">
<path d="M89.5623 67.2047L82.2341 59.9285C81.6577 59.3564 80.7234 59.3564 80.1506 59.9285C79.5742 60.5005 79.5742 61.4277 80.1506 61.9962L85.1805 66.988H65.7238C64.9756 61.9287 60.5865 58.0276 55.2843 58.0276H35.1366C29.7273 58.0276 25.2598 62.085 24.6512 67.294H21.4507C9.17459 67.294 2.95267 62.6859 2.95267 53.5946C2.95267 47.2101 7.69614 40.3854 21.0062 40.3854H24.6077C24.9442 45.8674 29.5337 50.2266 35.1398 50.2266H55.2875C60.3531 50.2266 64.5952 46.6665 65.6161 41.9377H68.5946C84.0958 41.9377 89.5947 33.2438 89.5947 25.8007C89.5947 18.2154 85.8751 9.1772 68.1511 9.1772H65.7596C65.1081 4.01132 60.6653 0 55.2844 0H35.1367C29.6629 0 25.1517 4.15329 24.6257 9.44733H15.5505C14.881 6.65479 12.3536 4.57277 9.34286 4.57277C5.82012 4.57277 2.95615 7.41507 2.95615 10.9111C2.95615 14.4072 5.82012 17.2495 9.34286 17.2495C12.3572 17.2495 14.8847 15.1639 15.5505 12.3749H24.7546C25.6532 17.2566 29.9635 20.9693 35.14 20.9693H55.2878C60.5575 20.9693 64.9254 17.118 65.7126 12.1049H68.1506C80.4268 12.1049 86.6487 16.713 86.6487 25.8043C86.6487 32.1888 81.9052 39.0135 68.5951 39.0135H65.8134C65.434 33.574 60.8624 29.2605 55.285 29.2605H35.1373C30.1003 29.2605 25.8791 32.7814 24.8307 37.4747C24.7985 37.4711 24.7662 37.464 24.7304 37.464H21.0037C5.49883 37.4605 0 46.1544 0 53.5974C0 61.1827 3.71959 70.2209 21.4436 70.2209H24.7192C25.5462 75.1913 29.8923 79 35.1294 79H55.2771C60.622 79 65.0431 75.035 65.7377 69.9153H84.7939L79.8893 74.8644C79.3166 75.44 79.3273 76.3673 79.9072 76.9322C80.1936 77.2129 80.566 77.3514 80.9418 77.3514C81.3249 77.3514 81.7044 77.2057 81.9943 76.9144L89.5767 69.2651C90.1459 68.693 90.1387 67.7729 89.5695 67.2044L89.5623 67.2047ZM9.33534 14.3235C7.43797 14.3235 5.895 12.7922 5.895 10.9092C5.895 9.02621 7.43797 7.49492 9.33534 7.49492C11.2327 7.49492 12.7757 9.02621 12.7757 10.9092C12.7757 12.7922 11.2327 14.3235 9.33534 14.3235ZM55.2771 18.0433H35.1294C30.9301 18.0433 27.5148 14.6539 27.5148 10.4864C27.5148 6.3189 30.9301 2.92943 35.1294 2.92943H55.2771C59.4764 2.92943 62.8917 6.3189 62.8917 10.4864C62.8917 14.6539 59.4764 18.0433 55.2771 18.0433ZM35.1331 32.1839H55.2808C59.4801 32.1839 62.8954 35.5733 62.8954 39.7408C62.8954 43.9083 59.4801 47.2978 55.2808 47.2978H35.1331C30.9338 47.2978 27.5185 43.9083 27.5185 39.7408C27.5185 35.5733 30.9338 32.1839 35.1331 32.1839ZM55.2771 76.0725H35.1294C30.9301 76.0725 27.5148 72.683 27.5148 68.5155C27.5148 64.3481 30.9301 60.9586 35.1294 60.9586H55.2771C59.4764 60.9586 62.8917 64.3481 62.8917 68.5155C62.8917 72.683 59.4764 76.0725 55.2771 76.0725Z" fill="#8D22A1"/>
</svg>
