<svg width="1245" height="877" viewBox="0 0 1245 877" fill="none" xmlns="http://www.w3.org/2000/svg">
<path d="M1023.44 -137.878C1134.77 52.8568 1246.1 243.574 1357.4 434.327C1247.83 626.241 1138.24 818.159 1028.61 1010.04C807.619 1011.1 586.624 1012.12 365.637 1013.15C254.198 822.31 142.823 631.435 31.4473 440.56C141.018 248.646 250.603 56.7278 360.235 -135.153C581.227 -136.213 802.222 -137.237 1023.21 -138.265L1023.44 -137.87L1023.44 -137.878ZM1034.54 273.6C1038.23 389.52 1041.91 505.448 1045.61 621.373L1070.29 603.327L1034.56 273.596L1034.54 273.6ZM1006.44 650.021C907.874 711.187 809.305 772.361 710.731 833.521L738.708 845.865L1006.44 650.013L1006.44 650.021ZM666.183 813.865C563.975 759.112 461.759 704.354 359.551 649.6L362.842 679.986L666.183 813.865ZM354.318 601.26C350.63 485.34 346.942 369.42 343.254 253.5L318.578 271.547L354.318 601.26ZM382.416 224.847C480.981 163.682 579.55 102.508 678.124 41.3475L650.147 29.0035L382.411 224.856L382.416 224.847ZM722.672 61.0033C824.88 115.757 927.097 170.515 1029.3 225.268L1026.01 194.883L722.672 61.0033ZM1026.29 231.492L682.008 47.0582L350.149 252.997L362.563 643.364L706.844 827.797L1038.7 621.859L1026.29 231.492ZM1022.51 -174.452C1144.51 22.1494 1266.52 218.751 1388.53 415.357L1060.6 1027.49C829.235 1034.85 597.87 1042.21 366.504 1049.57C244.448 852.879 122.391 656.191 0.334599 459.503L328.26 -152.634C559.625 -159.992 790.991 -167.349 1022.36 -174.707L1022.51 -174.452ZM1021.79 -173.649C790.827 -166.303 559.865 -158.956 328.894 -151.614L1.53466 459.465C123.377 655.812 245.22 852.158 367.071 1048.51C598.033 1041.16 828.995 1033.82 1059.97 1026.47L1387.33 415.395C1265.48 219.048 1143.64 22.7019 1021.79 -173.649ZM1032.68 197.232C1047.44 333.399 1062.2 469.566 1076.96 605.743L1101.9 584.72L1032.68 197.232ZM1071.64 610.224C961.071 691.107 850.502 771.991 739.938 852.866L770.616 863.957L1071.64 610.224ZM733.171 850.42C607.91 795.139 482.663 739.853 357.403 684.571L363.134 716.671L733.171 850.42ZM356.162 677.633C341.403 541.465 326.645 405.298 311.891 269.121L286.947 290.144L356.153 677.628L356.162 677.633ZM317.215 264.645C427.784 183.762 538.353 102.878 648.917 22.003L618.239 10.9116L317.215 264.645ZM655.685 24.4484C780.945 79.7302 906.192 135.016 1031.45 190.298L1025.72 158.197L655.685 24.4484ZM1031.17 155.501C1056.87 299.332 1082.56 443.171 1108.25 587.01C996.098 681.544 883.951 776.069 771.798 870.603C633.862 820.749 495.927 770.895 357.987 721.027C332.181 576.639 306.402 432.242 280.61 287.849C392.762 193.316 504.909 98.7908 617.062 4.25705C754.998 54.1111 892.934 103.965 1030.87 153.833L1031.17 155.501ZM1030.18 118.702C1066.6 268.391 1103.03 418.085 1139.45 567.783C1027.64 674.518 915.86 781.263 804.053 888.007C655.709 844.557 507.374 801.112 359.031 757.662C322.481 607.473 285.936 457.274 249.399 307.081C361.202 200.346 472.987 93.6013 584.794 -13.1425C733.137 30.3072 881.472 73.7522 1029.82 117.202L1030.18 118.702ZM1025.38 121.453L586.25 -7.17807L255.287 308.817L363.459 753.42L802.592 882.051L1133.55 566.056L1025.38 121.453ZM1029.19 81.939C1076.33 237.496 1123.49 393.048 1170.62 548.609C1059.17 667.559 947.702 786.477 836.244 905.422C677.511 868.364 518.787 831.31 360.054 794.252C312.773 638.257 265.502 482.267 218.235 326.269C329.684 207.319 441.149 88.4007 552.607 -30.5443C711.34 6.51402 870.064 43.5676 1028.8 80.6259L1029.19 81.939ZM1025.02 84.6625L554.207 -25.2514L223.609 327.525L363.827 790.215L834.644 900.129L1165.24 547.353L1025.02 84.6625ZM1028.22 45.2389C1086.07 206.65 1143.93 368.069 1201.77 529.475C1090.64 660.598 979.525 791.704 868.4 922.818C699.283 892.143 530.17 861.458 361.056 830.774C303.068 668.974 245.075 507.184 187.091 345.376C298.22 214.253 409.34 83.1473 520.465 -47.9672C689.582 -17.2915 858.695 13.393 1027.81 44.0776L1028.22 45.2301L1028.22 45.2389ZM1024.64 47.8271L522.124 -43.3347L191.915 346.282L364.222 827.047L866.741 918.208L1196.95 528.592L1024.64 47.8271ZM1027.25 8.56588C1095.81 175.843 1164.37 343.117 1232.92 510.389C1122.11 653.677 1011.31 796.965 900.515 940.249C721.022 915.939 541.525 891.614 362.032 867.304C293.335 699.7 224.647 532.101 155.964 364.494C266.77 221.206 377.575 77.9175 488.367 -65.3665C667.86 -41.0557 847.357 -16.7315 1026.85 7.57926L1027.25 8.56588ZM1024.23 10.9639L490 -61.4058L160.203 365.074L364.642 863.914L898.873 936.284L1228.67 509.804L1024.23 10.9639ZM1026.29 -28.08C1105.54 145.051 1184.8 318.191 1264.05 491.321C1153.56 646.77 1043.08 802.231 932.577 957.675C742.704 939.715 552.84 921.761 362.973 903.793C283.582 730.38 204.204 556.964 124.826 383.548C235.316 228.1 345.802 72.6383 456.301 -82.8051C646.174 -64.8458 836.037 -46.8912 1025.9 -28.9231L1026.29 -28.08ZM1023.79 -25.927L457.827 -79.4694L128.481 383.884L365.093 900.788L931.056 954.33L1260.4 490.977L1023.79 -25.927ZM1025.34 -64.7125C1115.28 114.285 1205.24 293.278 1295.17 472.289C1184.99 639.906 1074.81 807.514 964.606 975.117C764.367 963.527 564.121 951.888 363.874 940.249C273.806 761.038 183.739 581.804 93.6934 402.571C203.873 234.954 314.048 67.3461 424.254 -100.257C624.493 -88.6671 824.739 -77.028 1024.99 -65.389L1025.32 -64.7084L1025.34 -64.7125ZM1023.32 -62.8456L425.626 -97.5247L96.7442 402.742L365.557 937.701L963.247 972.381L1292.13 472.114L1023.32 -62.8456ZM1024.39 -101.318C1125.02 83.5506 1225.68 268.402 1326.29 453.283C1216.42 633.056 1106.51 812.8 996.627 992.554C786.005 987.28 575.389 981.975 364.772 976.692C264.027 791.659 163.287 606.618 62.5795 421.559C172.453 241.787 282.356 62.0423 392.242 -117.712C602.864 -112.438 813.481 -107.132 1024.1 -101.85L1024.38 -101.323L1024.39 -101.318ZM1022.83 -99.7736L393.408 -115.567L65.0158 421.628L366.043 974.616L995.462 990.409L1323.85 453.215L1022.83 -99.7736ZM1022.32 -136.711L361.162 -133.601L33.2779 440.531L366.55 1011.55L1027.71 1008.44L1355.59 434.311L1022.32 -136.711Z" fill="white" fill-opacity="0.05"/>
</svg>
