<svg width="90" height="90" viewBox="0 0 90 90" fill="none" xmlns="http://www.w3.org/2000/svg">
<path d="M32.6529 34.8361C23.6126 34.8361 16.2349 27.4584 16.2349 18.4181C16.2349 9.37774 23.6126 2 32.6529 2C41.6933 2 49.071 9.37774 49.071 18.4181C49.071 27.4584 41.6933 34.8361 32.6529 34.8361ZM32.6529 6.15647C25.8987 6.15647 20.3913 11.6638 20.3913 18.4181C20.3913 25.1723 25.8987 30.6797 32.6529 30.6797C39.4072 30.6797 44.9145 25.1723 44.9145 18.4181C44.9145 11.6638 39.4072 6.15647 32.6529 6.15647Z" fill="#8D22A1"/>
<path d="M61.9562 87C46.5772 87 34.1078 74.5305 34.1078 59.1516C34.1078 43.7726 46.5772 31.3032 61.9562 31.3032C77.3351 31.3032 89.8045 43.6687 89.8045 59.0477C89.8045 74.4266 77.3351 87 61.9562 87ZM61.9562 35.3558C48.8633 35.3558 38.2643 45.9548 38.2643 59.0477C38.2643 72.1406 48.8633 82.8435 61.9562 82.8435C75.049 82.8435 85.6481 72.1406 85.6481 59.0477C85.6481 45.9548 75.049 35.3558 61.9562 35.3558Z" fill="#8D22A1"/>
<path d="M2.62243 87C1.4794 87 0.544189 86.0648 0.544189 84.9218V66.5294C0.544189 52.6052 11.8706 41.2788 25.8987 41.2788C27.0417 41.2788 27.9769 42.214 27.9769 43.357C27.9769 44.5001 27.0417 45.4353 25.8987 45.4353C14.2606 45.4353 4.80457 54.8913 4.80457 66.5294V84.9218C4.70066 86.0648 3.76546 87 2.62243 87Z" fill="#8D22A1"/>
<path d="M69.3338 68.6075C68.8142 68.6075 68.2946 68.3997 67.879 67.9841L53.0196 53.1247C52.1883 52.2934 52.1883 51.0464 53.0196 50.2151C53.8509 49.3839 55.0978 49.3839 55.9291 50.2151L70.7885 65.0745C71.6198 65.9058 71.6198 67.1528 70.7885 67.9841C70.3729 68.3997 69.8533 68.6075 69.3338 68.6075Z" fill="#8D22A1"/>
<path d="M54.4744 68.6075C53.9548 68.6075 53.4352 68.3997 53.0196 67.9841C52.1883 67.1528 52.1883 65.9058 53.0196 65.0745L67.879 50.2151C68.7103 49.3839 69.9572 49.3839 70.7885 50.2151C71.6198 51.0464 71.6198 52.2934 70.7885 53.1247L55.9291 67.9841C55.6174 68.3997 54.9939 68.6075 54.4744 68.6075Z" fill="#8D22A1"/>
</svg>
